<svg xmlns="http://www.w3.org/2000/svg" width="655.171" height="425.437" viewBox="0 0 655.171 425.437">
  <g id="Group_1092" data-name="Group 1092" transform="translate(0 -0.003)">
    <path id="Path_1156" data-name="Path 1156" d="M961.438,424.127a67.19,67.19,0,0,1-62.027,66.994c-.565.043-1.142.086-1.719.112V427.461a4.272,4.272,0,0,0-1.585-3.325,1.083,1.083,0,0,0-.19-.155,1.611,1.611,0,0,0-.2-.138,4.308,4.308,0,0,0-4.109-.3l-.715-1.568a6.036,6.036,0,0,1,2.49-.543L844.317,379.16c.379-.431.775-.853,1.171-1.275a67.2,67.2,0,0,1,115.95,46.242Z" transform="translate(-306.267 -224.384)" fill="#f2f2f2"/>
    <path id="Path_1157" data-name="Path 1157" d="M239.475,479.039a8.689,8.689,0,0,1,8.382-10.357l38.732-46.107,9.67,12.363-39.474,42.91a8.737,8.737,0,0,1-17.31,1.191Z" transform="translate(-222.438 -233.48)" fill="#ffb8b8"/>
    <path id="Path_1158" data-name="Path 1158" d="M442.876,421.624a9.072,9.072,0,0,0-.717,1.235L399.868,428.9l-6.422-8.153-13.571,8.084,12.757,19.89,51.579-15.2a9.042,9.042,0,1,0-1.334-11.9Z" transform="translate(-241.914 -232.815)" fill="#ffb8b8"/>
    <path id="Path_1159" data-name="Path 1159" d="M149.426,393.366l7.484,7.451,32.3-25.319-11.045-11Z" transform="translate(-20.704 -50.505)" fill="#ffb8b8"/>
    <path id="Path_1160" data-name="Path 1160" d="M0,0H33.192V12.824H12.824A12.824,12.824,0,0,1,0,0H0Z" transform="translate(143.721 371.629) rotate(-135.123)" fill="#2f2e41"/>
    <path id="Path_1161" data-name="Path 1161" d="M103.246,474.428h10.561l5.024-40.736H103.244Z" transform="translate(-14.305 -60.092)" fill="#ffb8b8"/>
    <path id="Path_1162" data-name="Path 1162" d="M0,0H33.192V12.824H12.824A12.824,12.824,0,0,1,0,0H0Z" transform="translate(119.867 424.142) rotate(179.997)" fill="#2f2e41"/>
    <path id="Path_1163" data-name="Path 1163" d="M318.2,622.425l-12.03-88.717a111.083,111.083,0,0,1,1.724-40.243c2.469-10.606,5.8-17.953,9.912-21.835a4.064,4.064,0,0,1,2.363-1.079l39.718-4.137a4.054,4.054,0,0,1,3.885,1.941l1.306,2.176a4.045,4.045,0,0,1,.381.839l8.4,26.033a3.116,3.116,0,0,0,1.558,1.832c13.221,6.75,56.169,29.537,53.711,39.368-2.309,9.237-23.93,24.215-30.5,28.585a4.015,4.015,0,0,1-4.514-.034L383.2,559.689a4.043,4.043,0,0,1-.115-6.591l7.523-5.543a3.145,3.145,0,0,0-.824-5.5l-40.4-14.176a3.144,3.144,0,0,0-4.175,2.711l-7.449,91.044a4.053,4.053,0,0,1-3.827,3.708l-11.526.576c-.07,0-.14.005-.209.005A4.017,4.017,0,0,1,318.2,622.425Z" transform="translate(-231.551 -239.551)" fill="#2f2e41"/>
    <circle id="Ellipse_84" data-name="Ellipse 84" cx="21.158" cy="21.158" r="21.158" transform="translate(83.702 111.094)" fill="#ffb8b8"/>
    <path id="Path_1164" data-name="Path 1164" d="M315.972,457.249,300.4,400.424l.267-.18c.335-.225,33.9-22.392,73.205-4.529l.713.409-9.229,58.98a5.845,5.845,0,0,1-5.551,4.976l-37.975,1.461c-.077,0-.153,0-.229,0A5.816,5.816,0,0,1,315.972,457.249Z" transform="translate(-230.902 -228.795)" fill="#ccc"/>
    <path id="Path_1165" data-name="Path 1165" d="M297.464,439.315,284.493,424.4a4.037,4.037,0,0,1-.092-5.2l13.56-16.751,10.409,2.839,5.519,19.315L303.826,438.98a4.019,4.019,0,0,1-3.1,1.719c-.073,0-.145.005-.217.005a4.014,4.014,0,0,1-3.045-1.39Z" transform="translate(-228.56 -230.692)" fill="#ccc"/>
    <path id="Path_1166" data-name="Path 1166" d="M380.858,435.358a4.019,4.019,0,0,1-3.1-1.719L367.7,419.264l4.84-20.332,9.584-2.614,1.788.853,13.275,16.689a4.037,4.037,0,0,1-.092,5.2L384.12,433.973a4.014,4.014,0,0,1-3.045,1.39Q380.967,435.363,380.858,435.358Z" transform="translate(-240.226 -229.842)" fill="#ccc"/>
    <path id="Path_1167" data-name="Path 1167" d="M844.341,407.3a.845.845,0,0,1-.207.586.861.861,0,0,1-1.214.095l-2.886-2.49-49.068-42.271L653.342,244.641a4.324,4.324,0,0,0-5.634.009L462.378,405.662l-1.671,1.447a.832.832,0,0,1-.215.138.862.862,0,0,1-.44.069.883.883,0,0,1-.56-.284.859.859,0,0,1,.077-1.215l.233-.207L646.58,243.349a6.07,6.07,0,0,1,7.89-.017L792.137,361.944l51.9,44.726a.875.875,0,0,1,.3.629Z" transform="translate(-252.916 -208.443)" fill="#3f3d56"/>
    <path id="Path_1168" data-name="Path 1168" d="M738.2,427.358l-2.266-6.237-7.8-21.536-16.815-46.371-18.8-51.833-33.9-93.492a7.336,7.336,0,0,0-9.381-4.385l-195.986,71.06a7.333,7.333,0,0,0-4.385,9.381l48.06,132.541.818,2.266,50.446,22.863,14.179,6.426,2.3,1.042L624.7,476.3l2.326-.844,39.376-14.274,59.4-21.536,8-2.9a7.338,7.338,0,0,0,4.393-9.381Z" transform="translate(-251.413 -203.065)" fill="#e6e6e6"/>
    <path id="Path_1169" data-name="Path 1169" d="M667.549,334.133a10.787,10.787,0,0,0-13.8-6.452L576.2,355.807l-37.447,13.576a10.767,10.767,0,1,0,7.339,20.244L576.2,378.713l84.9-30.779A10.787,10.787,0,0,0,667.549,334.133Z" transform="translate(-262.945 -220.242)" fill="#fff"/>
    <path id="Path_1170" data-name="Path 1170" d="M683.4,377.853a10.787,10.787,0,0,0-13.8-6.452l-13.137,4.764L578.4,404.472,554.6,413.1a10.771,10.771,0,0,0,7.339,20.252l16.453-5.97,98.549-35.733c.224-.078.439-.172.655-.267A10.767,10.767,0,0,0,683.4,377.853Z" transform="translate(-265.14 -226.3)" fill="#fff"/>
    <path id="Path_1171" data-name="Path 1171" d="M699.419,422.034a10.777,10.777,0,0,0-13.791-6.452l-36.844,13.361-28.523,10.346-39.643,14.369-9.992,3.627a10.792,10.792,0,0,0-7,11.561,10.66,10.66,0,0,0,.517,2.128l14.179,6.426,2.3-.836h.017l71.939-26.084,40.393-14.644a10.778,10.778,0,0,0,6.452-13.8Z" transform="translate(-267.361 -232.422)" fill="#fff"/>
    <path id="Path_1172" data-name="Path 1172" d="M617.021,291.154a10.787,10.787,0,0,0-13.8-6.452l-44.537,16.143a10.771,10.771,0,1,0,7.339,20.253l14.093-5.108,9.329-3.385,21.123-7.658A10.777,10.777,0,0,0,617.021,291.154Z" transform="translate(-265.705 -214.287)" fill="#fff"/>
    <path id="Path_1173" data-name="Path 1173" d="M799.158,317.2H590.689a7.324,7.324,0,0,0-6.168,3.385,7.249,7.249,0,0,0-1.155,3.937V464.9L643.4,492.11l8.459,3.833L665.221,502a6.048,6.048,0,0,0,4.979,0l13.361-6.056,41.814-18.952,38.972-17.668,42.133-19.09V324.517A7.327,7.327,0,0,0,799.158,317.2Z" transform="translate(-270.11 -218.878)" fill="#09deff"/>
    <path id="Path_1174" data-name="Path 1174" d="M762.459,431.2H640.135a10.765,10.765,0,0,0-10.751,10.346,3.469,3.469,0,0,0-.017.422,10.783,10.783,0,0,0,10.768,10.768H762.459a10.768,10.768,0,1,0,0-21.536Z" transform="translate(-276.483 -234.674)" fill="#fff"/>
    <path id="Path_1175" data-name="Path 1175" d="M769.428,480.262a10.691,10.691,0,0,0-6.969-2.567H640.135a10.768,10.768,0,0,0,0,21.536h91.614l38.972-17.668A10.834,10.834,0,0,0,769.428,480.262Z" transform="translate(-276.484 -241.117)" fill="#fff"/>
    <path id="Path_1176" data-name="Path 1176" d="M662.877,524.7l13.361,6.056a6.048,6.048,0,0,0,4.979,0l13.361-6.056Z" transform="translate(-281.127 -247.63)" fill="#fff"/>
    <path id="Path_1177" data-name="Path 1177" d="M741.127,376.767a10.773,10.773,0,0,0-10.113-7.072H683.635a10.776,10.776,0,0,0-9.8,6.323,10.647,10.647,0,0,0-.965,4.445,10.783,10.783,0,0,0,10.768,10.768h47.379a10.767,10.767,0,0,0,10.113-14.464Z" transform="translate(-282.511 -226.153)" fill="#fff"/>
    <path id="Path_1178" data-name="Path 1178" d="M703.311,492.872,661.5,511.824l-9.9,4.488a4.322,4.322,0,0,1-3.549,0l-9.9-4.488h-4.178l13.361,6.056a6.048,6.048,0,0,0,4.979,0l13.361-6.056,41.814-18.952Zm0,0L661.5,511.824l-9.9,4.488a4.322,4.322,0,0,1-3.549,0l-9.9-4.488h-4.178l13.361,6.056a6.048,6.048,0,0,0,4.979,0l13.361-6.056,41.814-18.952Zm0,0L661.5,511.824l-9.9,4.488a4.322,4.322,0,0,1-3.549,0l-9.9-4.488h-4.178l13.361,6.056a6.048,6.048,0,0,0,4.979,0l13.361-6.056,41.814-18.952Zm140.337-59.258a6.583,6.583,0,0,0-1.042-.844,6,6,0,0,0-5.755-.422L745.168,473.9,703.31,492.872,661.5,511.824l-9.9,4.488a4.321,4.321,0,0,1-3.549,0l-9.9-4.488-10.312-4.678L565.5,478.9l-.017-.009-17-7.71-50.747-23L462.8,432.348a5.259,5.259,0,0,0-1.111-.37,5.78,5.78,0,0,0-2.576-.052,6.045,6.045,0,0,0-4.833,5.909V654.168a6.037,6.037,0,0,0,6.03,6.03H839.34a6.037,6.037,0,0,0,6.03-6.03V437.835A6.006,6.006,0,0,0,843.648,433.614Zm0,220.554a4.309,4.309,0,0,1-4.307,4.307H460.307A4.309,4.309,0,0,1,456,654.168V437.835a4.308,4.308,0,0,1,1.973-3.618,4.453,4.453,0,0,1,1.387-.586,3.872,3.872,0,0,1,.44-.069,3.346,3.346,0,0,1,.508-.034,4.281,4.281,0,0,1,1.775.388l36.473,16.531L549,473.309l14.179,6.426,2.3,1.042,60.034,27.213,8.459,3.833,13.361,6.056a6.048,6.048,0,0,0,4.979,0l13.361-6.056,41.814-18.952L746.46,475.2l91.106-41.289a4.308,4.308,0,0,1,4.109.3,1.6,1.6,0,0,1,.2.138,1.074,1.074,0,0,1,.19.155,4.272,4.272,0,0,1,1.585,3.325Zm-140.337-161.3L661.5,511.824l-9.9,4.488a4.322,4.322,0,0,1-3.549,0l-9.9-4.488h-4.178l13.361,6.056a6.048,6.048,0,0,0,4.979,0l13.361-6.056,41.814-18.952Zm0,0L661.5,511.824l-9.9,4.488a4.322,4.322,0,0,1-3.549,0l-9.9-4.488h-4.178l13.361,6.056a6.048,6.048,0,0,0,4.979,0l13.361-6.056,41.814-18.952ZM563.18,479.735l2.3,1.042V478.9Zm140.13,13.137L661.5,511.824l-9.9,4.488a4.322,4.322,0,0,1-3.549,0l-9.9-4.488h-4.178l13.361,6.056a6.048,6.048,0,0,0,4.979,0l13.361-6.056,41.814-18.952Z" transform="translate(-252.223 -234.759)" fill="#3f3d56"/>
    <path id="Path_1179" data-name="Path 1179" d="M379.453,696.658H282.11a.861.861,0,1,1,0-1.723h97.343a.861.861,0,0,1,0,1.723Z" transform="translate(-228.248 -271.218)" fill="#3f3d56"/>
    <path id="Path_1180" data-name="Path 1180" d="M328.532,366.894a9.219,9.219,0,0,1,.853-16.822c6.385-2.464,13.542,2.564,20.235,1.135,6.67-1.425,10.529-9.4,8.937-16.032s-7.387-11.628-13.777-14.014a29.7,29.7,0,0,0-25.62,2.348,27.352,27.352,0,0,0-12.874,22.082,25.359,25.359,0,0,0,12.27,22.217c1.7.98,3.681,1.768,5.594,1.326a15.6,15.6,0,0,0,4.383-2.241Z" transform="translate(-231.716 -219.169)" fill="#2f2e41"/>
    <path id="Path_1181" data-name="Path 1181" d="M309.682,320.584c-5.63-7.467-13.23-13.6-22.073-16.643s-18.949-2.8-27.255,1.5-14.5,12.834-15.146,22.164c-1.076,15.527,12.192,28.726,13.553,44.231a29.742,29.742,0,0,1-39.038,30.816,31.313,31.313,0,0,0,24.135,6.849,29.1,29.1,0,0,0,20.715-13.939c2.986-5.188,4.212-11.214,4.688-17.181a76.34,76.34,0,0,0-2.987-27.991c-1.488-4.946-3.506-10.035-2.563-15.113a13.754,13.754,0,0,1,10.712-10.728c4.267-.8,8.63.5,12.7,2s8.182,3.233,12.522,3.332,9.067-1.887,10.745-5.892Z" transform="translate(-219.723 -216.759)" fill="#2f2e41"/>
  </g>
</svg>
