<svg xmlns="http://www.w3.org/2000/svg" width="438.755" height="190.091" viewBox="0 0 438.755 190.091">
  <g id="Group_1417" data-name="Group 1417" transform="translate(-152.273 -192.044)">
    <path id="Path_2199" data-name="Path 2199" d="M152.273,247.263c84.5-58.773,123.519-9.548,225.161,12.178,60.3,10.781,111.131,13.68,155.883-28.1-33.908,54.5-102.959,57.8-165.794,46.25C267.138,258.833,256.437,208.683,152.273,247.263Z" transform="translate(0 68.256)" fill="#008cb0"/>
    <path id="Path_2200" data-name="Path 2200" d="M190.62,274.246c91.937,25.023,251.455,73.717,304.833-59.147C485.943,311.29,355.02,373.639,190.62,274.246Z" transform="translate(95.576 57.461)" fill="#008cb0"/>
    <path id="Path_2201" data-name="Path 2201" d="M349.617,286.831c-81.055-1.8-115.874-51.97-197.344-46.746,33.08-20.783,68.377-13.184,104.2,1.6C280.049,251.666,337.858,280.238,349.617,286.831Z" transform="translate(0 87.947)" fill="#008cb0"/>
    <path id="Path_2202" data-name="Path 2202" d="M215.783,306.509c48.617,8.225,98.066-4.418,130.556-25.267,55.637-35.528,26.127-96.97-20.682-78.327,46.26-41.619,109.822,46.26,31.215,95.328C310.842,326.852,251.227,326.908,215.783,306.509Z" transform="translate(158.291 0)" fill="#008cb0"/>
  </g>
</svg>
