<svg xmlns="http://www.w3.org/2000/svg" width="202" height="51.989" viewBox="0 0 202 51.989">
  <g id="Group_1472" data-name="Group 1472" transform="translate(-49 -2094)">
    <g id="Group_1469" data-name="Group 1469" transform="translate(49 2094)">
      <path id="Path_2310" data-name="Path 2310" d="M33.538,170.375c54.681-45.4,110.3,2.6,139.261,7.344,8.261,1.169,20.736-.471,22.044-.58-33.541,13.577-44.737-1.644-86.8-14.008C78.1,154.585,58.913,159.9,33.538,170.375Z" transform="translate(-10.534 -146.079)" fill="#0073ac"/>
      <path id="Path_2311" data-name="Path 2311" d="M19.139,192.686c8.715-19.943,33.772-36.194,58.849-32.021C114.743,166.55,142,181.616,174.72,182.8c-24.77,7.028-55.067-3.753-93.2-12.327C57.163,164.366,35.481,174,19.139,192.686Z" transform="translate(-19.139 -140.697)" fill="#0073ac"/>
      <path id="Path_2312" data-name="Path 2312" d="M83.7,153.483c20.6-11.509,42.794-3.112,63.525,6.705,19.852,9.455,25.323,10.813,35.338,8.905-10.937,8.239-25,4.35-38.767-.888C118.98,158.658,110.5,152.005,83.7,153.483Z" transform="translate(19.442 -147.92)" fill="#0073ac"/>
    </g>
  </g>
</svg>
