<svg id="Layer_1" data-name="Layer 1" xmlns="http://www.w3.org/2000/svg" viewBox="0 0 8611.95 3051.98"><defs><style>.cls-1{fill:#fff;}</style></defs><title>white logo resized 2</title><path class="cls-1" d="M159.74,2518.28l35.94-37.54a1043.44,1043.44,0,0,1,126.58-166.28,160.85,160.85,0,0,0,22-28.43,199.62,199.62,0,0,1,19.3-23.06c34.33-44.52,67.59-89,99.23-136.24a1046.87,1046.87,0,0,1,107.28-141.06L607.61,1932a61.67,61.67,0,0,1,29.51-44.52l37-53.64a12.86,12.86,0,0,1,9.11-12.87l19.31-27.36a32.18,32.18,0,0,1,4.29-20.91,47,47,0,0,1,6.44-9.12v-4.29l5.9-9.12,5.9-10.19a107.18,107.18,0,0,1,29.5-29l11.26-17.7a29.48,29.48,0,0,1,3.76-17.7c19.31-32.18,41.3-63.29,63.29-93.86,7-10.19,14.48-20.39,20.92-31.11,24.14-35.94,49.35-71.88,71.87-107.28s56.86-76.7,81.53-116.93a332.7,332.7,0,0,0,26.29-33.79l12.87-19.84c25.74-40.23,53.64-77.24,81.53-116.4a927.6,927.6,0,0,1,72.94-91.72,412,412,0,0,0,30-38.62,998.75,998.75,0,0,1,84.21-87.43,893.79,893.79,0,0,1,93.33-103l68.12-68.12c3.75-3.75,12.34-8.58,10.73-13.41s-10.19,0-15.56-3.22a290.08,290.08,0,0,0-85.82-5.9H1174.56a1449,1449,0,0,0-221-9.11h-63.3a523.79,523.79,0,0,1-126-12.88,127.63,127.63,0,0,1-77.78-44.52,60.78,60.78,0,0,1-8-12.33,172.13,172.13,0,0,1,0-126.59c11.26-29,26.28-56.85,40.76-85.28A581.85,581.85,0,0,1,765.84,391a229.76,229.76,0,0,1,24.14-29A439.29,439.29,0,0,1,994.88,238.7a665.2,665.2,0,0,1,126.58-17.17c164.67-8.58,327.72-31.64,490.78-53.63a170.7,170.7,0,0,0,37-5.37,203,203,0,0,1,30.58-5.36c114.78-25.75,231.17-42.91,347.57-63.29a1949.16,1949.16,0,0,1,223.13-21.46,157.16,157.16,0,0,1,120.14,53.64,184.34,184.34,0,0,1,23.07,53.64c12.87,34.86-5.9,63.29-17.7,93.33,0,9.11-15.56,17.16-4.29,28.42a291.81,291.81,0,0,1,130.87,94.4,282.15,282.15,0,0,1,30,74.56,128.22,128.22,0,0,1-6.44,53.64,168.84,168.84,0,0,1-12.33,34.86c0,7-6.44,13.41-9.66,20.38a33.23,33.23,0,0,1-3.75,10.2,48.35,48.35,0,0,1-9.12,13.94l-8.05,14.48a41,41,0,0,1-6.43,10.19c-15.56,27.36-40.23,47.21-57.4,73.49a122.29,122.29,0,0,1-27.35,25.21l-9.12,7-4.29,3.75a330.65,330.65,0,0,0-34.33,32.72l-46.66,46.67a730.88,730.88,0,0,1-63.29,59c-38.62,43.44-79.39,83.67-120.15,126.05s-73,88-115.86,126.58l-11.8,15c-24.14,29.5-53.64,59-75.63,89l-8,8.58-9.12,9.12-3.76,3.75-7.51,9.12c-7,9.12-13.4,19.31-22,29l-8,9.12-9.12,9.12a875.84,875.84,0,0,1-63.29,70.8c-29.5,39.69-62.76,75.09-92.8,115.86-29,32.18-56.31,66-82.06,100.84s-53.64,63.29-79.92,96-50.42,63.29-74.56,93.33a198.7,198.7,0,0,1-19.31,23.06l-7.5,8V1821l-7,9.12a113.78,113.78,0,0,1-13.41,18.23l-11.26,14c-26.82,34.86-53.64,68.66-81.53,102.45l-16.63,17.16-7.51,9.12-4.82,3.75-7.51,9.66-3.22,4.29-7,10.73c-27.36,35.4-53.64,68.65-82.07,104.59-88,98.16-160.91,197.39-246.19,288-31.11,36.48-63.3,72.41-93.87,110.5l-8,8a69.11,69.11,0,0,1-9.11,8.58l-3.76,4.29-8,8.05L797,2567.63l-7,9.66-3.75,4.29-8.58,8-3.76,4.83-8,8.05L724,2643.26a57.24,57.24,0,0,1-8,8l-7.51,7L704.7,2662l-7.51,7h-2.68l-7,7v3.22l-7,7-3.75,3.75-7,7.51v3.76a65,65,0,0,1-8.58,8.58L637.65,2735a368.37,368.37,0,0,1-56.32,47.74l-16.63,12.33a396.34,396.34,0,0,1-245.12,75.1,468.73,468.73,0,0,1-86.35-10.2,295.56,295.56,0,0,1-101.38-34.86,151.32,151.32,0,0,1-39.15-32.18,48.22,48.22,0,0,1-16.09-25.75V2758a40.91,40.91,0,0,0-6.44-10.19,6.44,6.44,0,0,0,0-7.51,47.64,47.64,0,0,1-14.48-20.92,246.46,246.46,0,0,1-3.22-49.88c5.9-13.94,10.19-29,16.63-42.91l16.09-29.5c8.58-10.19,17.7-19.31,26.82-29s16.09-25.75,32.71-29.5h1.61a25.24,25.24,0,0,1,13.95-20.39Z"/><path class="cls-1" d="M8587.78,1284.63a201.66,201.66,0,0,1-127.66,78.31,126,126,0,0,1-78.85,114.24,308.38,308.38,0,0,1-141.6,34.33,832.94,832.94,0,0,0-141.6,2.68,121.73,121.73,0,0,1-27.89,4.83,125,125,0,0,0-72.41,29l-12.34,12.34a107.25,107.25,0,0,0-25.74,53.64,302.89,302.89,0,0,0-9.12,90.65,123.81,123.81,0,0,0,33.79,53.63,54.23,54.23,0,0,1,4.83,11.27v5.9l53.63,56.32a15.54,15.54,0,0,1,16.09,15,9.91,9.91,0,0,1,0,1.09h0a573.56,573.56,0,0,1,102.45,177c3.22,0,4.29,0,3.76,3.76h0a456.41,456.41,0,0,1-18.78,180.22,160.85,160.85,0,0,1-46.12,94.93h0l-118.54,160.92a73,73,0,0,1-32.19,42.37c-24.13,15-35.4,47.74-69.19,49.88l-37.54,25.75a379.31,379.31,0,0,1-156.09,90.65,517.94,517.94,0,0,0-62.75,23.6,1327.14,1327.14,0,0,1-150.72,33.25,493.12,493.12,0,0,1-62.76,3.76,547.62,547.62,0,0,1-252.63-34.33A344.87,344.87,0,0,1,7126.7,2683a53.29,53.29,0,0,1-10.73-8l-4.83-3.75a281.64,281.64,0,0,0-22-22l-9.12-7.51-9.11-7.51a186.6,186.6,0,0,1-25.21-33.25c-4.3-7-8.59-13.95-12.34-21.46a248.36,248.36,0,0,1-16.63-81.53,277.82,277.82,0,0,1,7.51-35.4,91.23,91.23,0,0,1,3.76-11.26c3.21-9.12,5.9-18.24,9.11-27.36a265.87,265.87,0,0,1,19.31-36.47,196.92,196.92,0,0,1,28.43-31.65,130.11,130.11,0,0,1,30-23.6,229,229,0,0,1,44-19.31,394.85,394.85,0,0,1,177,11.8,331.53,331.53,0,0,0,172.72,8.59,616.72,616.72,0,0,0,69.19-23.07l11.8-4.83a427.85,427.85,0,0,0,63.29-30.57,110.22,110.22,0,0,0,19.85-12.34,116.39,116.39,0,0,0,30.57-35.93c0-3.76,3.22-7,4.83-10.73a64.92,64.92,0,0,0,0-45.06,143.89,143.89,0,0,0-33.79-42.37c-11.81-12.87-25.21-25.75-38.62-38.62l-43.45-44-38.08-38.62a58.57,58.57,0,0,1-11.27-13.95c-11.26-16.62-24.67-32.18-35.4-49.34a101.76,101.76,0,0,1-10.73-14.48,284,284,0,0,1-35.93-70.81L7451.2,1836l-3.75-12.88a361.51,361.51,0,0,0-9.12-40.22,610.93,610.93,0,0,1,0-88.51,401,401,0,0,1,20.38-83.13c6.44-17.17,12.34-34.33,19.85-51,10.73-27.35,23.06-53.64,36.47-81a190.55,190.55,0,0,1,12.34-23.07,648.69,648.69,0,0,1,122.29-160.91l9.12-9.12c11.8-10.72,22.53-22,34.33-34.32a254.2,254.2,0,0,1,45.59-37l24.67-16.63,9.12-5.9c15-10.19,31.65-17.16,45.59-28.43a1095,1095,0,0,1,137.31-63.29,1138.81,1138.81,0,0,1,133-44.52c40.77-7.51,82.07-11.8,126-19.31a79.47,79.47,0,0,1,22.53,0,87.41,87.41,0,0,1,63.29,12.34l137.31,17.16a22.51,22.51,0,0,1,11.27-3.22,181.86,181.86,0,0,1,40.23,15c14.48,8.05,25.74,19.31,39.69,27.36l9.12,7.51,3.75,3.75,8.05,7.51,4.29,4.29,8,7.51,4.29,4.83a80.45,80.45,0,0,1,18.78,27.35l6.43,10.73a69.19,69.19,0,0,1,.31,97.85c-.1.1-.21.2-.31.31l-9.65,8.58Z"/><path class="cls-1" d="M7420.09,1087.78l9.12,18.77v62.76s3.76,3.21,0,4.29-2.68,0-3.75,0a354,354,0,0,1-165.74,201.14,1117.44,1117.44,0,0,1-148.58,53.63l-24.13,9.12c-18.78,18.24-45.06,17.7-63.3,27.36a281.69,281.69,0,0,0-99.23,51,228.2,228.2,0,0,0-48.27,53.64c-5.36,8-12.34,15-18.77,23.06a433.64,433.64,0,0,0-45.59,69.73,337.86,337.86,0,0,0-26.82,53.64c-3.22,7-6.44,14-9.12,21.45,16.63,38.62,53.64,28.43,79.92,28.43a860.22,860.22,0,0,1,98.16-4.29h36.47a69.76,69.76,0,0,1,33.25,0c29,19.85,20.92,44,7.51,68.66l-7,10.19a91.43,91.43,0,0,1-11.27,13.94h-5.9a558.69,558.69,0,0,1-148,147c-45.06,46.66-107.28,42.37-163.6,58.46a120.44,120.44,0,0,1-27.89,0,68.65,68.65,0,0,0-62.75,27.9,542,542,0,0,0-47.74,63.29,289.9,289.9,0,0,0-19.85,30c-9.12,12.33-17.7,25.74-26.28,39.15a747.16,747.16,0,0,0-35.94,68.12,349.63,349.63,0,0,0-18.23,40.76c-7.51,9.12,0,16.1,0,23.6l92.25,16.1a17.15,17.15,0,0,1,17.7,0h53.64a7.5,7.5,0,0,1,9.12,0l145.36-8c49.88-3.22,56.85,0,56.85,53.64,0,0-3.22,3.75,0,6.43v24.68c5.36,4.29,0,13.94,10.19,17.16h0a18.27,18.27,0,0,0,8.05,7.51c37,29.5,0,53.64-9.12,75.63v5.9l-5.9,9.65-3.75,4.29-7.51,7.51a37.57,37.57,0,0,1-18.78,11.27,577.66,577.66,0,0,1-354.54,137.31,238,238,0,0,0-28.43,11.26H6153.72A207.56,207.56,0,0,1,5970.28,2654a58.48,58.48,0,0,1-5.37-13.41,312.77,312.77,0,0,1,0-63.29v-12.88c7-22.53,12.88-45.59,17.7-68.12V2484a169.07,169.07,0,0,0,7-36.48v-15c9.11-38.08,23.06-75.62,34.86-113.71a537.14,537.14,0,0,1,18.24-56.85c18.23-44.52,32.18-90.65,53.63-134.1,4.3-9.65,8.59-19.31,12.34-29.5s17.7-36.47,26.28-53.63c3.22-7.51,7-14.49,10.19-22a254.55,254.55,0,0,1,18.24-38.62c27.36-47.74,48.81-98.7,78.31-145.36l5.9-10.73,25.21-39.15,7.51-14.49a53.36,53.36,0,0,1,5.9-9.11,194.09,194.09,0,0,0,14.48-22,48.45,48.45,0,0,1,4.83-9.11,58.65,58.65,0,0,1,4.83-10.19l5.9-10.2c13.94-20.38,27.35-40.22,40.22-63.29s34.33-53.63,53.64-83.67l7-9.12a11.21,11.21,0,0,0,4.83-4.83,79.55,79.55,0,0,0,10.19-13.41,33.58,33.58,0,0,1,5.9-9.12l5.9-9.11,3.22-4.83q9.12-13.41,19.31-27.36l7-9.11a461.52,461.52,0,0,0,27.36-44,268,268,0,0,0,41.3-95.47c3.75-12.34,7-25.21,9.66-38.08a325.47,325.47,0,0,1,34.86-96.55,133,133,0,0,1,74-49.88c44.52-15.56,89-29.5,134.09-45.6,19.31-6.43,40.23-10.19,63.29-17.7a445.36,445.36,0,0,1,153.94-29l268.19-26.82c9.12-4.29,18.24-7.51,26.28,0h0a303.08,303.08,0,0,1,38.08,9.12A781.25,781.25,0,0,0,7420.09,1087.78Z"/><path class="cls-1" d="M2560,1169.84l90.65-92.79h0a37.35,37.35,0,0,0,10.19-8l28.43-17.16c11.26-22,34.86-19.31,53.64-27.36a96.19,96.19,0,0,1,27.35-3.75,146.31,146.31,0,0,1,34.33,3.75,107.36,107.36,0,0,1,45.59,31.65,62.8,62.8,0,0,1,10.73,18.24,208.57,208.57,0,0,1,3.75,63.29,150,150,0,0,1-3.75,21.45c-7,29.5-11.8,60.08-17.7,90.11a649.65,649.65,0,0,0-14.48,77.24c-8,29.5-14.49,59-19.85,89A411.62,411.62,0,0,0,2792.8,1496v12.87c-10.19,38.08-23.6,75.63-31.11,113.71,0,10.19-7.51,23.6,5.36,28.43s14.49-9.12,19.31-16.09c24.68-34.87,49.89-69.19,76.7-102.45l8.05-9.12,10.73-8,11.8-14a506.29,506.29,0,0,1,76.16-82.6,187.82,187.82,0,0,1,60.61-26.82,161,161,0,0,1,81,3.75,289.87,289.87,0,0,1,40.22,21.46l9.12,8.58,12.34,12.34,9.12,8c7.51,9.66,14.48,19.31,20.92,29.5l5.9,10.73c5.36,12.87,10.19,26.28,15,39.69l3.76,11.27a583.93,583.93,0,0,1,13.94,100.84,12.92,12.92,0,0,0,7-5.9,8.57,8.57,0,0,1,4.29-9.12l7-13.95,18.24-35.94,7-11.8a27.36,27.36,0,0,1,4.83-8.58l5.36-12.87a9.66,9.66,0,0,1,4.29-9.66l8-13.41c7.51-13.4,15.55-26.28,22-39.15s7-13.41,9.65-20.38l5.37-9.12c5.36-9.12,10.19-19.85,15-29l5.9-9.11v-4.83a97.28,97.28,0,0,0,10.72-17.7l9.12-19.85,11.27-22c45.59-72.41,84.74-148.57,135.16-218.3,34.87-48.28,70.27-97.62,141.61-91.19a77.71,77.71,0,0,0,25.2-10.19c30-12.87,53.64-33.79,85.82-47.2l42.91-22A331,331,0,0,1,4008.22,929a206.51,206.51,0,0,1,103,48.81,161,161,0,0,1,40.22,74.56,111.51,111.51,0,0,1-8,75.62,350.17,350.17,0,0,1-30.58,43.45,554,554,0,0,0-48.81,63.29l-7,9.12-7,8.58-3.76,4.29c-3.75,6.44-7,12.34-11.26,18.78s-12.34,14.48-17.7,22.52c-48.27,70.27-91.18,143.75-138.38,214.55l-7,10.73-10.72,15.56c-42.38,59-84.75,118-126.59,178.61-53.64,78.85-107.27,160.91-160.91,238.15a40.18,40.18,0,0,1-7,9.65l-6.44,9.12-13.41,19.85c-5.9,8-10.73,17.16-17.16,24.67l-11.27,14.48a724.18,724.18,0,0,1-42.91,63.29c-20.38,27.36-40.76,53.64-63.29,81.53l-7.51,9.66-7.51,9.65-3.75,4.29c-12.34,14.49-21.46,30-34.33,43.45-34.86,53.64-78.85,94.94-117.47,142.14a567.68,567.68,0,0,1-39.15,41.3A613.51,613.51,0,0,1,3035.78,2566l-18.24,8.05a258.14,258.14,0,0,1-63.29,20.92,208.14,208.14,0,0,1-153.94-23.07,138.91,138.91,0,0,1-72.41-107.27,482.24,482.24,0,0,0-7-65.44c-7-22-12.88-25.75-31.11-11.8s-36.48,30.57-56.86,44.52a1159.94,1159.94,0,0,1-97.08,77.24l-9.12,7-9.12,7a76.5,76.5,0,0,0-14.48,8l-9.12,7-31.11,18.77a219.9,219.9,0,0,1-223.67,0,121.2,121.2,0,0,1-53.63-98.15,479.93,479.93,0,0,0,5.36-53.64v-15.56c7-19.84,3.75-41.83,9.12-62.75s3.75-42.91,9.12-63.29c12.33-43.45,13.94-89.58,26.81-133.56a315.88,315.88,0,0,0,10.73-40.23,248.42,248.42,0,0,0,8.05-39.69c6.43-26.82,13.41-53.64,18.77-78.85s19.31-63.29,26.82-94.94l10.19-28.42a46.23,46.23,0,0,1,3.75-11.27,164.74,164.74,0,0,0,5.9-27.35v-11.27c5.9-20.38,9.12-40.22,16.63-59.53a378.76,378.76,0,0,0,17.7-59.54l9.12-27.36,7.51-20.91,3.22-10.73a93.23,93.23,0,0,0,7.51-20.38,110.71,110.71,0,0,1,5.9-11.27,139.19,139.19,0,0,0,4.83-21.45V1556a155.53,155.53,0,0,0,6.43-20.92l3.76-10.19a141.87,141.87,0,0,0,6.43-21.45v-9.66c9.12-24.67,16.09-49.88,24.68-74.55a256.09,256.09,0,0,0,7.5-29,42.78,42.78,0,0,1,3.22-11.8c9.12-23.06,14.49-46.66,25.21-69.73a196.21,196.21,0,0,0,9.12-22.53,35.57,35.57,0,0,1,4.29-11.26C2515,1239.57,2521.4,1193.44,2560,1169.84Z"/><path class="cls-1" d="M5251,2682.41l-75.63,16.1A321.85,321.85,0,0,1,5011.78,2654h0l-18.24-17.7a27.93,27.93,0,0,1-16.09-10.73,165.18,165.18,0,0,1-18.24-63.29v-11.8a789.25,789.25,0,0,1,14.48-80.46v-11.8a406.58,406.58,0,0,0,9.12-44.52c5.37-28.43,9.12-57.39,14.48-85.82a61.31,61.31,0,0,1,0-13.94,458.43,458.43,0,0,0,9.66-53.64,728.18,728.18,0,0,0,15-84.21c7.51-38.08,15.55-76.7,20.92-115.32s17.16-91.72,25.21-137.31a65,65,0,0,1,0-14.49c10.72-48.27,15-96.54,25.21-144.82,5.9-21.45,7-43.44,11.26-63.29,7.51-48.81,20.38-97.08,25.21-146.43,13.41-67.58,24.14-135.7,37.54-203.28a237.66,237.66,0,0,0,9.66-47.21V1290a194.71,194.71,0,0,1,143.75-175.4A148.21,148.21,0,0,1,5361,1104.4h85.82a19.84,19.84,0,0,1,10.72,9.12V1120l24.14,62.75a49.4,49.4,0,0,1,10.19,13.41,979.23,979.23,0,0,1,4.29,163.6,91.1,91.1,0,0,1,0,24.13,646.22,646.22,0,0,0-8,111.57,66.13,66.13,0,0,1,0,14.48c-4.3,63.29-16.1,120.15-23.6,180.22a733,733,0,0,0-17.17,89.58,38.09,38.09,0,0,0,20.92,42.37c22.53,9.12,29-10.73,38.08-24.67s13.95-23.07,21.46-34.87a426.29,426.29,0,0,0,33.79-53.63l5.9-10.19a40.79,40.79,0,0,0,6.44-10.2l7-10.72c22.53-31.65,42.37-63.3,67.58-96.55a801.11,801.11,0,0,0,47.2-70.8c9.12-12.34,17.7-26.28,27.89-39.16a213.51,213.51,0,0,0,19.85-29c27.35-36.47,53.64-74,79.92-110.49l56.85-80.46c16.1-25.21,36.48-48.27,53.64-73.48l13.41-20.92a149.66,149.66,0,0,1,89.58-58.47,335.27,335.27,0,0,1,268.18,0l37,27.89h0a15,15,0,0,1,9.12,11.81l28.43,78.84-16.63,67.59V1290a42.36,42.36,0,0,1-4.29,16.63c-5.9,10.19-10.19,21.45-23.6,24.13l-93.87,114.79a165.7,165.7,0,0,1-69.72,86.35l-96,128.2-53.64,75.63-73,99.76-17.16,22a96,96,0,0,1-30.58,43.45l-19.31,27.89a18.77,18.77,0,0,1-14.48,19.85l-68.12,86.89-8,10.19L5752,2099.38c0,24.13-18.77,34.32-33.79,47.2l-27.89,37.54a72.45,72.45,0,0,1-31.11,44l-34.33,45.59L5578.19,2337a16.64,16.64,0,0,1-9.12,12.34h0a75.59,75.59,0,0,1-35.94,47.73L5366.86,2598.2a73.43,73.43,0,0,1-9.12,9.12h0a24.15,24.15,0,0,1-20.38,17.17h0a13.41,13.41,0,0,1-12.34,9.11h-4.83c-9.65,24.14-36.47,23.07-53.64,35.4Z"/><path class="cls-1" d="M4934,1180c-17.7-12.87-22-23.06-7-39.15a231.81,231.81,0,0,0,17.7-26.82,86.36,86.36,0,0,0-24.67-92.26,201.18,201.18,0,0,0-135.71-39.69,791.46,791.46,0,0,0-121.75,30A448.52,448.52,0,0,0,4499,1119.42c-17.16,15-35.4,29-53.63,42.91a76.71,76.71,0,0,0-27.89,12.34c-12.34,13.41-30,24.67-30,44.52l-53.64,53.64h-5.9a32.16,32.16,0,0,0-21.45,27.89l-8.59,8.58a12.31,12.31,0,0,0-9.11,9.12l-200.61,225.81-63.29,80.46c-11.8,4.82-13.95,16.62-18.77,26.28s-16.63,11.26-16.63,20.38a16.12,16.12,0,0,0-9.12,11.26c-13.41,4.3-16.63,16.1-20.38,26.82l-20.38,26.29-171.64,252.63c-7.51,3.22-4.83,13.41-11.27,17.16l-36.47,53.64-34.86,53.64L3622,2215.23c-10.72,3.22-7,12.88-10.72,18.24-19.31,7-12.88,24.67-19.31,37.55l-27.36,53.63-44.52,99.77-29,101.91,8.58,72.41A143.74,143.74,0,0,0,3618.82,2662a24.64,24.64,0,0,0,22.52,5.9l27.36-7,10.73-3.22,20.38-9.12,9.12-4.29,20.38-9.12a318.71,318.71,0,0,0,57.93-41.83l22-21.46c17.7-17.7,35.4-35.94,53.64-53.64l23.6-23.06a173.23,173.23,0,0,1,151.25-95.47,131.47,131.47,0,0,0,62.76-30,647.79,647.79,0,0,1,122.29-66c6.44-4.29,8-9.11,17.17-4.29s0,13.41,0,20.39a1342.1,1342.1,0,0,1-53.64,170,142.68,142.68,0,0,0-17.17,95.47,81.59,81.59,0,0,0,32.72,37l15,8.58,10.19,4.83a91.41,91.41,0,0,0,14.48,5.9,13.36,13.36,0,0,0,9.12,0l31.11,5.36a219.9,219.9,0,0,0,226.35-90.11,42.37,42.37,0,0,0,17.17-45.59L4578.92,2374l18.24-47.74h3.75a23.58,23.58,0,0,0,13.95-30l17.7-48.81a4.84,4.84,0,0,1-.15-6.83l.15-.15c4.29-5.36,3.22-13.94,7.51-19.31l17.16-45.05,82.07-230.64,48.27-138.39,9.12-26.28a25.23,25.23,0,0,0,8.05-18.77v-3.22a22,22,0,0,0,8-21.46l47.2-134.63,38.62-103.52c27.36-73.48,53.64-147.5,82.6-220.44A112.09,112.09,0,0,0,4934,1180Zm-422.66,402.28c-53.64,137.31-69.19,243-99.76,304.66,0,0,7,12.34-80.46,14.48S4233,1910,4234,1904.67l7-25.21,236.54-394.77a550.7,550.7,0,0,1,96.55-110.49A858.26,858.26,0,0,1,4511.34,1582.31Z"/></svg>