<svg id="Layer_1" data-name="Layer 1" xmlns="http://www.w3.org/2000/svg" viewBox="0 0 162.89 56.17"><defs><style>.cls-1{fill:#fff;}</style></defs><title>Artboard 1</title><path class="cls-1" d="M3.25,47l.67-.7A19.45,19.45,0,0,1,6.28,43.2a3,3,0,0,0,.41-.53,3.73,3.73,0,0,1,.36-.43c.64-.83,1.26-1.66,1.85-2.54a19.53,19.53,0,0,1,2-2.63l.7-1a1.15,1.15,0,0,1,.55-.83l.69-1a.24.24,0,0,1,.17-.24l.36-.51a.6.6,0,0,1,.08-.39.88.88,0,0,1,.12-.17v-.08l.11-.17.11-.19a2,2,0,0,1,.55-.54l.21-.33a.55.55,0,0,1,.07-.33c.36-.6.77-1.18,1.18-1.75.13-.19.27-.38.39-.58.45-.67.92-1.34,1.34-2s1.06-1.43,1.52-2.18a6.21,6.21,0,0,0,.49-.63l.24-.37c.48-.75,1-1.44,1.52-2.17a17.29,17.29,0,0,1,1.36-1.71,7.72,7.72,0,0,0,.56-.72,18.57,18.57,0,0,1,1.57-1.63,16.66,16.66,0,0,1,1.74-1.92l1.27-1.27c.07-.07.23-.16.2-.25s-.19,0-.29-.06a5.4,5.4,0,0,0-1.6-.11H22.17a27,27,0,0,0-4.12-.17H16.87a9.77,9.77,0,0,1-2.35-.24,2.38,2.38,0,0,1-1.45-.83,1.14,1.14,0,0,1-.15-.23,3.21,3.21,0,0,1,0-2.36c.21-.54.49-1.06.76-1.59a10.85,10.85,0,0,1,.87-1.18A4.27,4.27,0,0,1,15,6.8a8.19,8.19,0,0,1,3.82-2.3,12.41,12.41,0,0,1,2.36-.32c3.07-.16,6.11-.59,9.15-1a3.19,3.19,0,0,0,.69-.1,3.78,3.78,0,0,1,.57-.1c2.14-.48,4.31-.8,6.48-1.18a36.37,36.37,0,0,1,4.16-.4,2.93,2.93,0,0,1,2.24,1,3.44,3.44,0,0,1,.43,1c.24.65-.11,1.18-.33,1.74,0,.17-.29.32-.08.53a5.44,5.44,0,0,1,2.44,1.76,5.26,5.26,0,0,1,.56,1.39,2.39,2.39,0,0,1-.12,1,3.15,3.15,0,0,1-.23.65c0,.13-.12.25-.18.38a.62.62,0,0,1-.07.19.9.9,0,0,1-.17.26l-.15.27a.76.76,0,0,1-.12.19c-.29.51-.75.88-1.07,1.37a2.28,2.28,0,0,1-.51.47l-.17.13-.08.07a6.15,6.15,0,0,0-.64.61l-.87.87a13.6,13.6,0,0,1-1.18,1.1c-.72.81-1.48,1.56-2.24,2.35s-1.36,1.64-2.16,2.36l-.22.28c-.45.55-1,1.1-1.41,1.66l-.15.16-.17.17-.07.07-.14.17c-.13.17-.25.36-.41.54l-.15.17-.17.17a16.36,16.36,0,0,1-1.18,1.32c-.55.74-1.17,1.4-1.73,2.16-.54.6-1.05,1.23-1.53,1.88s-1,1.18-1.49,1.79-.94,1.18-1.39,1.74a3.73,3.73,0,0,1-.36.43l-.14.15V34l-.13.17a2.13,2.13,0,0,1-.25.34l-.21.26c-.5.65-1,1.28-1.52,1.91L24.4,37l-.14.17-.09.07-.14.18-.06.08-.13.2c-.51.66-1,1.28-1.53,1.95-1.64,1.83-3,3.68-4.59,5.37-.58.68-1.18,1.35-1.75,2.06l-.15.15a1.29,1.29,0,0,1-.17.16l-.07.08-.15.15-.3.3L15,48.1l-.07.08-.16.15-.07.09-.15.15-.78.76a1.06,1.06,0,0,1-.15.15l-.14.13-.07.07-.14.13-.05,0-.13.13V50l-.13.13-.07.07-.13.14v.07a1.21,1.21,0,0,1-.16.16l-.44.47a6.87,6.87,0,0,1-1.05.89l-.31.23a7.39,7.39,0,0,1-4.57,1.4,8.74,8.74,0,0,1-1.61-.19,5.51,5.51,0,0,1-1.89-.65,2.82,2.82,0,0,1-.73-.6.9.9,0,0,1-.3-.48v-.17a.76.76,0,0,0-.12-.19.12.12,0,0,0,0-.14.89.89,0,0,1-.27-.39,4.61,4.61,0,0,1-.06-.93c.11-.26.19-.54.31-.8l.3-.55c.16-.19.33-.36.5-.54s.3-.48.61-.55H3A.47.47,0,0,1,3.26,47Z"/><path class="cls-1" d="M160.38,24A3.76,3.76,0,0,1,158,25.46a2.35,2.35,0,0,1-1.47,2.13,5.75,5.75,0,0,1-2.64.64,15.52,15.52,0,0,0-2.64.05,2.27,2.27,0,0,1-.52.09,2.33,2.33,0,0,0-1.35.54l-.23.23a2,2,0,0,0-.48,1,5.65,5.65,0,0,0-.17,1.69,2.31,2.31,0,0,0,.63,1,1,1,0,0,1,.09.21v.11l1,1.05a.29.29,0,0,1,.3.3h0a10.7,10.7,0,0,1,1.91,3.3c.06,0,.08,0,.07.07h0a8.51,8.51,0,0,1-.35,3.36,3,3,0,0,1-.86,1.77h0l-2.21,3a1.36,1.36,0,0,1-.6.79c-.45.28-.66.89-1.29.93l-.7.48a7.07,7.07,0,0,1-2.91,1.69,9.68,9.68,0,0,0-1.17.44,24.73,24.73,0,0,1-2.81.62,9.18,9.18,0,0,1-1.17.07,10.21,10.21,0,0,1-4.71-.64,6.45,6.45,0,0,1-.58-.31,1,1,0,0,1-.2-.15l-.09-.07a5.29,5.29,0,0,0-.41-.41l-.17-.14-.17-.14a3.49,3.49,0,0,1-.47-.62c-.08-.13-.16-.26-.23-.4a4.63,4.63,0,0,1-.31-1.52,5.18,5.18,0,0,1,.14-.66,1.72,1.72,0,0,1,.07-.21c.06-.17.11-.34.17-.51a4.94,4.94,0,0,1,.36-.68,3.67,3.67,0,0,1,.53-.59,2.42,2.42,0,0,1,.56-.44,4.26,4.26,0,0,1,.82-.36,7.36,7.36,0,0,1,3.3.22,6.18,6.18,0,0,0,3.22.16,11.47,11.47,0,0,0,1.29-.43l.22-.09a8,8,0,0,0,1.18-.57,2.06,2.06,0,0,0,.37-.23,2.17,2.17,0,0,0,.57-.67c0-.07.06-.13.09-.2a1.21,1.21,0,0,0,0-.84,2.68,2.68,0,0,0-.63-.79c-.22-.24-.47-.48-.72-.72l-.81-.82-.71-.72a1.09,1.09,0,0,1-.21-.26c-.21-.31-.46-.6-.66-.92a1.89,1.89,0,0,1-.2-.27,5.29,5.29,0,0,1-.67-1.32l-.18-.42-.07-.24a6.74,6.74,0,0,0-.17-.75,11.36,11.36,0,0,1,0-1.65,7.47,7.47,0,0,1,.38-1.55c.12-.32.23-.64.37-.95.2-.51.43-1,.68-1.51a3.55,3.55,0,0,1,.23-.43,12.09,12.09,0,0,1,2.28-3l.17-.17c.22-.2.42-.41.64-.64a4.75,4.75,0,0,1,.85-.69l.46-.31.17-.11c.28-.19.59-.32.85-.53a20.41,20.41,0,0,1,2.56-1.18,21.22,21.22,0,0,1,2.48-.83c.76-.14,1.53-.22,2.35-.36a1.48,1.48,0,0,1,.42,0,1.63,1.63,0,0,1,1.18.23l2.56.32a.42.42,0,0,1,.21-.06,3.39,3.39,0,0,1,.75.28c.27.15.48.36.74.51l.17.14.07.07.15.14.08.08.15.14.08.09a1.5,1.5,0,0,1,.35.51l.12.2a1.29,1.29,0,0,1,0,1.83l-.18.16Z"/><path class="cls-1" d="M138.61,20.33l.17.35v1.17s.07.06,0,.08-.05,0-.07,0a6.6,6.6,0,0,1-3.09,3.75,20.83,20.83,0,0,1-2.77,1l-.45.17c-.35.34-.84.33-1.18.51a5.25,5.25,0,0,0-1.85.95,4.25,4.25,0,0,0-.9,1c-.1.15-.23.28-.35.43a8.08,8.08,0,0,0-.85,1.3,6.32,6.32,0,0,0-.5,1c-.06.13-.12.26-.17.4.31.72,1,.53,1.49.53a16,16,0,0,1,1.83-.08h.68a1.3,1.3,0,0,1,.62,0c.54.37.39.82.14,1.28l-.13.19a1.71,1.71,0,0,1-.21.26h-.11a10.42,10.42,0,0,1-2.76,2.74c-.84.87-2,.79-3.05,1.09a2.26,2.26,0,0,1-.52,0,1.28,1.28,0,0,0-1.17.52,10.13,10.13,0,0,0-.89,1.18,5.42,5.42,0,0,0-.37.56c-.17.23-.33.48-.49.73a13.93,13.93,0,0,0-.67,1.27,6.51,6.51,0,0,0-.34.76c-.14.17,0,.3,0,.44l1.72.3a.32.32,0,0,1,.33,0h1a.14.14,0,0,1,.17,0l2.71-.15c.93-.06,1.06,0,1.06,1,0,0-.06.07,0,.12v.46c.1.08,0,.26.19.32h0a.34.34,0,0,0,.15.14c.69.55,0,1-.17,1.41v.11l-.11.18-.07.08-.14.14a.7.7,0,0,1-.35.21,10.77,10.77,0,0,1-6.61,2.56A4.43,4.43,0,0,0,120,51h-5a3.87,3.87,0,0,1-3.42-1.47,1.09,1.09,0,0,1-.1-.25,5.82,5.82,0,0,1,0-1.18v-.24c.13-.42.24-.85.33-1.27v-.23a3.14,3.14,0,0,0,.13-.68V45.4c.17-.71.43-1.41.65-2.12a10,10,0,0,1,.34-1.06c.34-.83.6-1.69,1-2.5.08-.18.16-.36.23-.55s.33-.68.49-1c.06-.14.13-.27.19-.41a4.74,4.74,0,0,1,.34-.72c.51-.89.91-1.84,1.46-2.71l.11-.2.47-.73.14-.27a1,1,0,0,1,.11-.17,3.62,3.62,0,0,0,.27-.41.91.91,0,0,1,.09-.17,1.11,1.11,0,0,1,.09-.19l.11-.19c.26-.38.51-.75.75-1.18s.64-1,1-1.56l.13-.17A.21.21,0,0,0,120,29a1.5,1.5,0,0,0,.19-.25.62.62,0,0,1,.11-.17l.11-.17.06-.09q.17-.25.36-.51l.13-.17a8.63,8.63,0,0,0,.51-.82,5,5,0,0,0,.77-1.78c.07-.23.13-.47.18-.71a6.07,6.07,0,0,1,.65-1.8,2.48,2.48,0,0,1,1.38-.93c.83-.29,1.66-.55,2.5-.85.36-.12.75-.19,1.18-.33a8.3,8.3,0,0,1,2.87-.54l5-.5c.17-.08.34-.14.49,0h0a5.65,5.65,0,0,1,.71.17C137.7,19.86,138.15,20.11,138.61,20.33Z"/><path class="cls-1" d="M48,21.86l1.69-1.73h0a.7.7,0,0,0,.19-.15l.53-.32c.21-.41.65-.36,1-.51a1.79,1.79,0,0,1,.51-.07,2.73,2.73,0,0,1,.64.07,2,2,0,0,1,.85.59,1.17,1.17,0,0,1,.2.34,3.89,3.89,0,0,1,.07,1.18,2.79,2.79,0,0,1-.07.4c-.13.55-.22,1.12-.33,1.68a12.14,12.14,0,0,0-.27,1.44c-.15.55-.27,1.1-.37,1.66a7.67,7.67,0,0,0-.3,1.5v.24c-.19.71-.44,1.41-.58,2.12,0,.19-.14.44.1.53s.27-.17.36-.3c.46-.65.93-1.29,1.43-1.91l.15-.17L54,28.3l.22-.26a9.44,9.44,0,0,1,1.42-1.54A3.5,3.5,0,0,1,56.77,26a3,3,0,0,1,1.51.07,5.4,5.4,0,0,1,.75.4l.17.16.23.23.17.15c.14.18.27.36.39.55l.11.2c.1.24.19.49.28.74l.07.21a10.9,10.9,0,0,1,.26,1.88.24.24,0,0,0,.13-.11.16.16,0,0,1,.08-.17l.13-.26.34-.67.13-.22a.51.51,0,0,1,.09-.16l.1-.24a.18.18,0,0,1,.08-.18l.15-.25c.14-.25.29-.49.41-.73s.13-.25.18-.38l.1-.17c.1-.17.19-.37.28-.54l.11-.17v-.09a1.81,1.81,0,0,0,.2-.33l.17-.37.21-.41c.85-1.35,1.58-2.77,2.52-4.07.65-.9,1.31-1.82,2.64-1.7a1.45,1.45,0,0,0,.47-.19c.56-.24,1-.63,1.6-.88l.8-.41A6.17,6.17,0,0,1,75,17.37a3.85,3.85,0,0,1,1.92.91,3,3,0,0,1,.75,1.39,2.08,2.08,0,0,1-.15,1.41,6.55,6.55,0,0,1-.57.81,10.3,10.3,0,0,0-.91,1.18l-.13.17-.13.16-.07.08c-.07.12-.13.23-.21.35s-.23.27-.33.42c-.9,1.31-1.7,2.68-2.58,4l-.13.2-.2.29c-.79,1.1-1.58,2.2-2.36,3.33-1,1.47-2,3-3,4.44a.75.75,0,0,1-.13.18l-.12.17-.25.37c-.11.15-.2.32-.32.46l-.21.27a13.57,13.57,0,0,1-.8,1.18c-.38.51-.76,1-1.18,1.52l-.14.18-.14.18-.07.08c-.23.27-.4.56-.64.81-.65,1-1.47,1.77-2.19,2.65a10.57,10.57,0,0,1-.73.77,11.44,11.44,0,0,1-3.11,2.56l-.34.15a4.81,4.81,0,0,1-1.18.39A3.88,3.88,0,0,1,52.48,48a2.59,2.59,0,0,1-1.35-2A9,9,0,0,0,51,44.78c-.13-.41-.24-.48-.58-.22s-.68.57-1.06.83a21.57,21.57,0,0,1-1.81,1.44l-.17.13-.17.13a1.43,1.43,0,0,0-.27.15l-.17.13-.58.35a4.1,4.1,0,0,1-4.17,0,2.26,2.26,0,0,1-1-1.83,8.93,8.93,0,0,0,.1-1V44.6c.13-.37.07-.78.17-1.17s.07-.8.17-1.18c.23-.81.26-1.67.5-2.49a5.89,5.89,0,0,0,.2-.75,4.62,4.62,0,0,0,.15-.74c.12-.5.25-1,.35-1.47s.36-1.18.5-1.77l.19-.53a.86.86,0,0,1,.07-.21,3.1,3.1,0,0,0,.11-.51v-.21c.11-.38.17-.75.31-1.11a7.08,7.08,0,0,0,.33-1.11l.17-.51.14-.39.06-.2a1.74,1.74,0,0,0,.14-.38,2.12,2.12,0,0,1,.11-.21,2.59,2.59,0,0,0,.09-.4v-.2a2.91,2.91,0,0,0,.12-.39l.07-.19a2.64,2.64,0,0,0,.12-.4V27.9c.17-.46.3-.93.46-1.39a4.75,4.75,0,0,0,.14-.54.79.79,0,0,1,.06-.22c.17-.43.27-.87.47-1.3a3.69,3.69,0,0,0,.17-.42.66.66,0,0,1,.08-.21C47.16,23.16,47.28,22.3,48,21.86Z"/><path class="cls-1" d="M98.17,50.06l-1.41.3a6,6,0,0,1-3.05-.83h0l-.34-.33a.52.52,0,0,1-.3-.2,3.08,3.08,0,0,1-.34-1.18V47.6A14.69,14.69,0,0,1,93,46.1v-.22a7.63,7.63,0,0,0,.17-.83c.1-.53.17-1.07.27-1.6a1.13,1.13,0,0,1,0-.26,8.54,8.54,0,0,0,.18-1,13.56,13.56,0,0,0,.28-1.57c.14-.71.29-1.43.39-2.15s.32-1.71.47-2.56a1.22,1.22,0,0,1,0-.27c.2-.9.28-1.8.47-2.7.11-.4.13-.81.21-1.18.14-.91.38-1.81.47-2.73.25-1.26.45-2.53.7-3.79a4.44,4.44,0,0,0,.18-.88v-.26a3.63,3.63,0,0,1,2.68-3.27,2.76,2.76,0,0,1,.75-.19h1.6a.37.37,0,0,1,.2.17v.12l.45,1.17a.92.92,0,0,1,.19.25,18.26,18.26,0,0,1,.08,3.05,1.7,1.7,0,0,1,0,.45,12.06,12.06,0,0,0-.15,2.08,1.22,1.22,0,0,1,0,.27c-.08,1.18-.3,2.24-.44,3.36a13.66,13.66,0,0,0-.32,1.67.71.71,0,0,0,.39.79c.42.17.54-.2.71-.46s.26-.43.4-.65a7.94,7.94,0,0,0,.63-1l.11-.19a.76.76,0,0,0,.12-.19l.13-.2c.42-.59.79-1.18,1.26-1.8a14.94,14.94,0,0,0,.88-1.32c.17-.23.33-.49.52-.73a4,4,0,0,0,.37-.54c.51-.68,1-1.38,1.49-2.06l1.06-1.5c.3-.47.68-.9,1-1.37l.25-.39a2.79,2.79,0,0,1,1.67-1.09,6.25,6.25,0,0,1,5,0l.69.52h0a.28.28,0,0,1,.17.22l.53,1.47L118.9,24v.1a.79.79,0,0,1-.08.31c-.11.19-.19.4-.44.45L116.63,27a3.09,3.09,0,0,1-1.3,1.61L113.54,31l-1,1.41-1.36,1.86-.32.41a1.79,1.79,0,0,1-.57.81l-.36.52a.35.35,0,0,1-.27.37L108.39,38l-.15.19-.73,1c0,.45-.35.64-.63.88l-.52.7a1.35,1.35,0,0,1-.58.82l-.64.85-.87,1.18a.31.31,0,0,1-.17.23h0a1.41,1.41,0,0,1-.67.89l-3.1,3.75a1.37,1.37,0,0,1-.17.17h0a.45.45,0,0,1-.38.32h0a.25.25,0,0,1-.23.17h-.09c-.18.45-.68.43-1,.66Z"/><path class="cls-1" d="M92.26,22.05c-.33-.24-.41-.43-.13-.73a4.32,4.32,0,0,0,.33-.5A1.61,1.61,0,0,0,92,19.1a3.75,3.75,0,0,0-2.53-.74,14.75,14.75,0,0,0-2.27.56,8.36,8.36,0,0,0-3.05,2c-.32.28-.66.54-1,.8a1.43,1.43,0,0,0-.52.23c-.23.25-.56.46-.56.83l-1,1h-.11a.6.6,0,0,0-.4.52l-.16.16a.23.23,0,0,0-.17.17l-3.74,4.21-1.18,1.5c-.22.09-.26.31-.35.49s-.31.21-.31.38a.3.3,0,0,0-.17.21c-.25.08-.31.3-.38.5l-.38.49-3.2,4.71c-.14.06-.09.25-.21.32l-.68,1-.65,1-1.18,1.91c-.2.06-.13.24-.2.34-.36.13-.24.46-.36.7l-.51,1-.83,1.86-.54,1.9.16,1.35a2.68,2.68,0,0,0,2.22,1.18.46.46,0,0,0,.42.11l.51-.13.2-.06.38-.17.17-.08.38-.17a5.94,5.94,0,0,0,1.08-.78l.41-.4c.33-.33.66-.67,1-1l.44-.43a3.23,3.23,0,0,1,2.82-1.78,2.45,2.45,0,0,0,1.17-.56A12.07,12.07,0,0,1,79,43c.12-.08.15-.17.32-.08s0,.25,0,.38a25,25,0,0,1-1,3.17A2.66,2.66,0,0,0,78,48.25a1.52,1.52,0,0,0,.61.69l.28.16.19.09a1.69,1.69,0,0,0,.27.11.25.25,0,0,0,.17,0l.58.1a4.1,4.1,0,0,0,4.22-1.68.79.79,0,0,0,.32-.85l1-2.56.34-.89h.07a.44.44,0,0,0,.26-.56l.33-.91a.09.09,0,0,1,0-.13c.08-.1.06-.26.14-.36l.32-.84,1.53-4.3.9-2.58.17-.49a.47.47,0,0,0,.15-.35v-.06a.41.41,0,0,0,.15-.4l.88-2.51L91.6,28c.51-1.37,1-2.75,1.54-4.11A2.09,2.09,0,0,0,92.26,22.05Zm-7.88,7.5c-1,2.56-1.29,4.53-1.86,5.68,0,0,.13.23-1.5.27s-1.83.16-1.81.06l.13-.47,4.41-7.36a10.27,10.27,0,0,1,1.8-2.06A16,16,0,0,1,84.38,29.55Z"/></svg>